# xmcd
#
# Track frame offsets:
#	150
#	28908
#	48926
#	75188
#	92475
#	123847
#	142868
#	163368
#
# Disc length: 2434 seconds
#
# Revision: 0
# Processed by: cddbd v1.5.2PL0 Copyright (c) Steve Scherf et al.
# Submitted via: dBpowerAMP V4.0
#
DISCID=58098008
DTITLE=Roger - The Saga Continues
DYEAR=1984
DGENRE=R&B
TTITLE0=In The Mix
TTITLE1=Play Your Guitar, Brother Roger
TTITLE2=The Break Song
TTITLE3=I Keep Trying
TTITLE4=Midnight Hour
TTITLE5=Bucket Of Blood
TTITLE6=T.C. Song
TTITLE7=Girl, Cut It Out
EXTD=
EXTT0=
EXTT1=
EXTT2=
EXTT3=
EXTT4=
EXTT5=
EXTT6=
EXTT7=
PLAYORDER=
